<?xml version="1.0" ?><svg fill="none" height="24" viewBox="0 0 24 24" width="24" xmlns="http://www.w3.org/2000/svg"><path clip-rule="evenodd" d="M12 3.5C7.30559 3.5 3.50001 7.30558 3.50001 12C3.50001 13.6734 3.98309 15.2325 4.8172 16.5472C4.89773 16.6741 4.91688 16.8305 4.86934 16.9731L3.79058 20.2094L7.02687 19.1307C7.16948 19.0831 7.32591 19.1023 7.45285 19.1828C8.76751 20.0169 10.3266 20.5 12 20.5C16.6944 20.5 20.5 16.6944 20.5 12C20.5 7.30558 16.6944 3.5 12 3.5ZM2.50001 12C2.50001 6.75329 6.75331 2.5 12 2.5C17.2467 2.5 21.5 6.75329 21.5 12C21.5 17.2467 17.2467 21.5 12 21.5C10.2172 21.5 8.54773 21.0084 7.12143 20.1532L3.15813 21.4743C2.97846 21.5342 2.78038 21.4875 2.64646 21.3536C2.51254 21.2196 2.46578 21.0216 2.52567 20.8419L3.84677 16.8786C2.99159 15.4523 2.50001 13.7829 2.50001 12Z" fill="black" fill-rule="evenodd"/><path clip-rule="evenodd" d="M8.42706 7.35355C9.01284 6.76777 9.96259 6.76777 10.5484 7.35356L11.8035 8.60869C11.9988 8.80395 11.9988 9.12053 11.8035 9.3158L10.8323 10.287C10.6785 10.4408 10.6585 10.6433 10.7359 10.7819C11.3172 11.8229 12.1771 12.6829 13.2181 13.2641C13.3567 13.3415 13.5592 13.3215 13.713 13.1677L14.6842 12.1965C14.778 12.1027 14.9052 12.0501 15.0378 12.0501C15.1704 12.0501 15.2976 12.1027 15.3913 12.1965L16.6465 13.4516C17.2322 14.0374 17.2322 14.9872 16.6465 15.573L15.2723 16.9471C14.7668 17.4527 14.019 17.6292 13.3407 17.4031L13.1271 17.3319C10.0776 16.3154 7.68463 13.9224 6.66811 10.8729L6.59691 10.6593C6.37083 9.98103 6.54735 9.23326 7.05289 8.72772L8.42706 7.35355ZM9.84127 8.06066C9.64601 7.8654 9.32942 7.8654 9.13416 8.06066L7.76 9.43483C7.52229 9.67253 7.43929 10.0241 7.5456 10.343L7.6168 10.5567C8.53377 13.3076 10.6924 15.4662 13.4434 16.3832L13.657 16.4544C13.9759 16.5607 14.3275 16.4777 14.5652 16.24L15.9394 14.8659C16.1346 14.6706 16.1346 14.354 15.9394 14.1587L15.0378 13.2572L14.4201 13.8748C13.9925 14.3025 13.3098 14.4607 12.7305 14.1372C11.5278 13.4656 10.5344 12.4722 9.86279 11.2695C9.53936 10.6902 9.69756 10.0075 10.1252 9.57992L10.7429 8.96224L9.84127 8.06066Z" fill="black" fill-rule="evenodd"/></svg>