<svg id="Camada_2" data-name="Camada 2" xmlns="http://www.w3.org/2000/svg" viewBox="0 0 723.75 257.25"><defs><style>.cls-1{font-size:118.69px;font-family:TrebuchetMS-Bold, Trebuchet MS;font-weight:700;}</style></defs><text class="cls-1" transform="translate(171.15 101.8)">TIBAGI</text><path d="M329,318.72v8.7h-2.27V304.31h6a8.19,8.19,0,0,1,5.64,1.78,6.52,6.52,0,0,1,2,5.09,7.18,7.18,0,0,1-2.2,5.42,8.35,8.35,0,0,1-6,2.12Zm0-12.36v10.31h3a6.41,6.41,0,0,0,4.46-1.39,5.09,5.09,0,0,0,1.53-4,4.73,4.73,0,0,0-1.4-3.72,6.18,6.18,0,0,0-4.22-1.24Z" transform="translate(-38.13 -180.75)"/><path d="M356.9,327.42H345V304.31h11.36v2.05h-9.09v8.31h8.43v2.05h-8.43v8.65h9.62Z" transform="translate(-38.13 -180.75)"/><path d="M375.05,306.36h-6.67v21.06h-2.26V306.36h-6.67v-2.05h15.6Z" transform="translate(-38.13 -180.75)"/><path d="M376.84,325.63l1.14-1.69a10.15,10.15,0,0,0,2.78,1.38,11,11,0,0,0,3.23.44,5.5,5.5,0,0,0,3.59-1.14,3.88,3.88,0,0,0,1.41-3.21,3.68,3.68,0,0,0-1.15-2.79,10.87,10.87,0,0,0-3.74-2,13.1,13.1,0,0,1-4.8-2.63,5.11,5.11,0,0,1-1.53-3.83,5.71,5.71,0,0,1,2-4.53,7.62,7.62,0,0,1,5.18-1.7,11.78,11.78,0,0,1,2.83.34,12.57,12.57,0,0,1,2.86,1.11l-.92,1.8a10.57,10.57,0,0,0-2.4-.93,10.43,10.43,0,0,0-2.57-.29,5.19,5.19,0,0,0-3.4,1.05,3.54,3.54,0,0,0-1.28,2.91,3.36,3.36,0,0,0,1.16,2.63A12.42,12.42,0,0,0,385,314.5a12.06,12.06,0,0,1,4.76,2.68,5.56,5.56,0,0,1,1.46,4,6.24,6.24,0,0,1-2,4.76,7.62,7.62,0,0,1-5.43,1.85,11.72,11.72,0,0,1-7-2.18Z" transform="translate(-38.13 -180.75)"/><path d="M412.74,327.42h-2.26V316.66H398v10.76h-2.28V304.31H398v10.3h12.45v-10.3h2.26Z" transform="translate(-38.13 -180.75)"/><path d="M428.16,327.81a10.07,10.07,0,0,1-7.84-3.25,12.1,12.1,0,0,1-2.94-8.44,12.72,12.72,0,0,1,3-8.87,10.5,10.5,0,0,1,8.2-3.32,9.85,9.85,0,0,1,7.63,3.2,12,12,0,0,1,2.92,8.41q0,5.7-3,9A10.26,10.26,0,0,1,428.16,327.81Zm0-2.05a8,8,0,0,0,6.31-2.6q2.31-2.61,2.31-7.29t-2.25-7.3a7.73,7.73,0,0,0-6.18-2.6,7.84,7.84,0,0,0-6.18,2.75,12.11,12.11,0,0,0-.09,14.35A7.64,7.64,0,0,0,428.14,325.76Z" transform="translate(-38.13 -180.75)"/><path d="M446,318.72v8.7h-2.27V304.31h6a8.14,8.14,0,0,1,5.63,1.78,6.49,6.49,0,0,1,2,5.09,7.22,7.22,0,0,1-2.2,5.42,8.36,8.36,0,0,1-6,2.12Zm0-12.36v10.31h3a6.42,6.42,0,0,0,4.47-1.39,5.09,5.09,0,0,0,1.53-4,4.73,4.73,0,0,0-1.4-3.72,6.23,6.23,0,0,0-4.23-1.24Z" transform="translate(-38.13 -180.75)"/><path d="M748.13,240c-41-46-90-7-90-7l-29.87,30.84H574.13v18.71l62-.55,28-28c13-13,25-18,42-17s37,19,37,44c0,20.08-16.13,35-22.48,40.09a7.94,7.94,0,0,0-2.91,5.28l.33,1.41-.33,1.42a7.9,7.9,0,0,0,2.91,5.27c6.35,5.1,22.48,20,22.48,40.1,0,25-20,43-37,44s-29-4-42-17l-28-28-58.26-.52V373h-352v0l-62,.55-28,28c-13,13-25,18-42,17s-37-19-37-44c0-20.08,16.13-35,22.48-40.1a7.9,7.9,0,0,0,2.91-5.27l-.33-1.42.33-1.41a7.94,7.94,0,0,0-2.91-5.28C73,316,56.87,301.08,56.87,281c0-25,20-43,37-44s29,4,42,17l28,28,62,.55V263.84H171.74L141.87,233s-49-39-90,7c-16,20-23,55.84,6.81,87.78-29.77,32-22.77,67.83-6.81,87.79,41,46,90,7,90,7l29.87-30.84h54.13V392h352v-.27h50.39l29.87,30.84s49,39,90-7c16-20,23-55.84-6.81-87.79C771.09,295.84,764.09,260,748.13,240Z" transform="translate(-38.13 -180.75)"/></svg>